<svg width="326" height="274" viewBox="0 0 326 274" fill="none" xmlns="http://www.w3.org/2000/svg">
<path d="M169.596 273.426V227.427C169.596 227.427 150.136 178.219 124.596 158.927C94.5918 136.262 31.0962 135.927 31.0962 135.927C31.0962 135.927 42.3452 220.511 85.5962 212.427C139.096 202.427 169.596 226.427 169.596 226.427C169.596 226.427 175.025 198.349 180.096 181.427C186.02 161.658 184.798 149.295 198.596 131.927C216.46 109.44 238.061 100.687 266.596 103.927C291.319 106.734 321.096 136.927 321.096 136.927C307.263 135.76 275.996 137.527 261.596 153.927C247.196 170.327 245.096 176.927 231.596 176.927C218.096 176.927 208.134 157.188 195.096 158.927C187.596 159.927 179.632 182.427 181.625 175.927C185.884 162.029 172.096 145.926 162.596 135.427C154.311 126.269 150.596 121.927 150.596 121.927C150.596 121.927 139.826 115.799 134.096 110.427C119.054 96.3225 128.585 74.8081 112.096 62.4267C91.3291 46.833 66.5962 48.9268 45.5962 62.4267C25.4951 75.3487 3.59619 106.927 3.59619 106.927C3.59619 106.927 50.1293 94.0245 77.0962 103.927C93.3641 109.9 96.9292 126.056 114.096 128.427C128.406 130.403 149.596 120.427 149.596 120.427C145.43 111.927 136.096 100.427 143.096 79.4267C150.096 58.4268 171.596 50.9268 171.596 50.9268C171.596 50.9268 166.596 34.4269 178.596 17.4268C190.596 0.426757 208.596 -1.57323 229.596 4.92682C272.871 18.3216 275.596 18.9268 275.596 18.9268C275.596 18.9268 258.096 50.4267 227.596 43.9267C213.387 40.8986 207.111 63.0479 192.596 62.4268C183.521 62.0385 170.596 51.3157 170.596 51.3157" stroke="white" stroke-width="3"/>
</svg>
