<svg width="159" height="93" viewBox="0 0 159 93" fill="none" xmlns="http://www.w3.org/2000/svg">
<path d="M22.6099 90.3388H137.308L156.352 9.97714C156.352 9.97714 157.172 7.64298 155.4 4.97696C153.38 1.9389 148.9 2.00009 148.9 2.00009H9.39987C9.39987 2.00009 5.62554 2.02461 3.39966 4.97705C1.22076 7.86716 2.23641 10.9771 2.23641 10.9771L22.6099 90.3388Z" fill="#120520"/>
<path d="M24.0933 18.9771H132.593M3.39966 4.97705C5.62554 2.02461 9.39987 2.00009 9.39987 2.00009H148.9C148.9 2.00009 153.38 1.9389 155.4 4.97696C157.172 7.64298 156.352 9.97714 156.352 9.97714L137.308 90.3388H22.6099L2.23641 10.9771C2.23641 10.9771 1.22076 7.86716 3.39966 4.97705Z" stroke="#4C1F7A" stroke-width="4"/>
</svg>
