<svg width="585" height="439" viewBox="0 0 585 439" fill="none" xmlns="http://www.w3.org/2000/svg">
<path d="M258.5 368H15.0002C15.0002 368 8.50024 368 5.50024 364.5C2.50024 361 2.50024 355.5 2.50024 355.5L2 11.5C2 11.5 2.01093 7.75111 4.5 5.00002C7.25108 1.95935 12.5 2.00005 12.5 2.00005H573C573 2.00005 578.56 1.95038 581 4.99992C582.952 7.43952 583 11.3118 583 11.3118V359C583 359 582.985 363.015 580.5 365.5C578.015 367.985 574 368 574 368H328.5M258.5 368V423H227V436.5H359.5V423H328.5V368M258.5 368H328.5M536.693 342.5H554V29.0001H29.5V342.5H217.693M536.693 342.5V140.5M536.693 342.5H534.193M536.693 140.5H217.693M536.693 140.5L377.319 242.378M217.693 140.5V342.5M217.693 140.5L377.319 242.378M217.693 342.5H220.693M220.693 342.5L377.319 242.378M220.693 342.5H534.193M377.319 242.378L534.193 342.5M94.1934 56H174.693M94.1934 76H156.693M47.1934 166H95.6934M104.193 166H171.693M47.1934 186H130.693M47.1934 224H78.6934M87.1934 224H135.693M144.193 224H179.693M47.1934 244H144.693M47.1934 264H101.693M110.193 264H164.693M47.1934 284H121.693M292.693 8.5C288.551 8.5 285.193 11.8579 285.193 16C285.193 20.1421 288.551 23.5 292.693 23.5C296.835 23.5 300.193 20.1421 300.193 16C300.193 11.8579 296.835 8.5 292.693 8.5ZM65.1934 48.5C55.8045 48.5 48.1934 56.1112 48.1934 65.5C48.1934 74.8888 55.8045 82.5 65.1934 82.5C74.5822 82.5 82.1934 74.8888 82.1934 65.5C82.1934 56.1112 74.5822 48.5 65.1934 48.5ZM309.693 54.5V76.5H376.193V54.5H309.693ZM389.693 54.5V76.5H456.693V54.5H389.693ZM469.693 54.5V76.5H536.193V54.5H469.693Z" stroke="#4C1F7A" stroke-width="4"/>
</svg>
