<svg width="375" height="260" viewBox="0 0 375 260" fill="none" xmlns="http://www.w3.org/2000/svg">
<path d="M159.116 258.128C180.116 237.628 190.993 213.025 190.993 213.025C190.993 213.025 287.493 220.525 336.993 184.025C386.492 147.525 382.116 76.2318 336.993 40.1283C277.788 -7.24093 101.24 -12.7683 43.1163 40.1282C-15.0077 93.0248 -4.50753 149.525 35.4924 184.025C75.4924 218.525 157.116 213.025 157.116 213.025C157.116 213.025 167.616 233.137 159.616 257.637M96.4927 156.525C96.4927 156.525 129.116 131.025 134.993 105.025C137.981 91.8019 130.24 76.6281 114.616 79.0247C104.385 80.5941 96.1162 105.025 96.1162 105.025C96.1162 105.025 82.85 79.2922 71.1162 79.0247C57.9441 78.7243 51.7709 92.0379 53.9927 105.025C58.1164 129.128 97.6164 157.128 97.6164 157.128M186.616 92.1281C186.616 92.1281 191.537 76.1954 205.993 75.0247C222.416 73.6946 237.701 86.0499 237.993 102.525C238.289 119.257 206.74 123.231 205.616 128.628C204.493 134.025 205.616 145.128 205.616 145.128M205.993 158.525C204.888 158.525 203.993 159.42 203.993 160.525C203.993 161.629 204.888 162.525 205.993 162.525C207.097 162.525 208.149 161.618 207.993 160.525C207.875 159.705 207.066 158.642 206.246 158.525M290.616 77.6281C294.45 96.7947 301.093 137.125 301.493 139.525C301.893 141.925 308.326 100.191 311.493 79.0247H291.993M301.493 158.525C300.664 158.525 299.993 159.196 299.993 160.025C299.993 160.853 300.664 161.525 301.493 161.525C302.321 161.525 302.993 160.853 302.993 160.025C302.993 159.295 302.778 158.525 301.737 158.525" stroke="#4C1F7A" stroke-width="5"/>
</svg>
