<svg width="620" height="404" viewBox="0 0 620 404" fill="none" xmlns="http://www.w3.org/2000/svg">
<path d="M307 402.5C307 386.586 304.321 381 300 375.5C294.5 368.5 290.5 367.5 278.5 361.5C268.064 356.282 257.147 353.986 259.658 342.574C265.336 316.777 336.995 333.307 319.438 309.114C307.78 293.05 267.928 305.476 252.26 293.312C234.435 279.474 265.143 259.649 242.956 255.623C220.274 251.507 217.789 268.088 182.926 271.327C167.05 272.802 155.732 268.985 146.987 255.623C131.803 232.421 152.471 200.855 128.282 191.138C109.794 183.712 97.2703 196.79 75.4994 204.094C52.0944 211.946 33.7821 212.485 19.3867 206.548C6.94538 201.416 -15.1416 172.379 15.5675 151.486C45.1418 131.366 88.2629 115.158 102.919 70.3166C134.55 -26.4588 290.941 -8.00672 272.629 34.6883C250.557 86.1488 285.555 102.313 330.993 73.3592C362.042 53.5746 402.583 97.5533 449.976 97.3076C489.907 97.1006 522.271 83.4669 550.646 79.3463C591.873 73.3592 630.849 82.9778 617.237 120.765C610.587 139.225 589.719 137.843 575.911 149.229C552.751 168.326 565.922 206.744 520.68 204.585C501.797 203.684 494.435 190.157 478.179 197.322C458.538 205.979 478.188 236.155 461.629 249.832C435.759 271.2 412.295 251.576 381.916 237.367C361.351 227.748 341.178 231.478 335.89 244.728C329.424 260.93 341.21 273.376 356.944 280.847C382.36 292.915 414.697 315.706 410.684 332.71C407.445 346.435 393.651 357.37 375.861 357.37C345.815 357.37 303.5 338.5 314 369.5C320.496 388.678 307 406.5 307 402.5Z" fill="#190A29"/>
</svg>
