<svg width="624" height="312" viewBox="0 0 624 312" fill="none" xmlns="http://www.w3.org/2000/svg">
<path d="M435.149 245.229L446.13 219.688C446.13 219.688 530.564 205.478 569.09 151.876C583.533 131.78 587.895 110.883 579.352 87.6619C570.369 63.2473 547.846 54.3856 525.523 53.8459C506.634 53.3894 481.596 68.4156 481.596 68.4156C481.596 68.4156 484.837 43.3083 479.436 30.6422C470.614 9.95694 387.158 2.69914 321.37 2.04266C251.562 1.34606 158.444 9.05782 140.622 34.2399C129.491 49.9678 135.572 96.4746 145.122 141.084M435.149 245.229C435.149 245.229 352.339 250.12 299.227 249.906C251.666 249.715 176.987 243.431 176.987 243.431M435.149 245.229C435.149 245.229 493.009 242.948 529.304 236.056C569.09 228.501 618.107 219.688 621.838 198.103M176.987 243.431C176.987 243.431 162.586 214.472 152.864 174.54C151.082 167.221 146.944 149.594 145.122 141.084M176.987 243.431C176.987 243.431 9.2626 226.524 2.22766 193.249M621.838 198.103C625.57 176.519 563.509 160.33 563.509 160.33M621.838 198.103C621.838 198.103 619.495 213.279 604.195 228.322C586.544 245.676 571.43 259.08 509.68 284.082C447.931 309.084 383.661 309.084 304.988 309.084C213.319 309.084 143.502 299.911 85.1727 269.692C63.4993 258.464 32.3806 238.255 18.7425 222.926C5.99653 208.599 2.9539 197.681 2.22766 193.249M528.223 149.358C528.223 149.358 509.219 144.551 497.618 142.163C486.018 139.775 467.734 137.486 467.734 137.486M2.22766 193.249C2.07696 192.536 2 191.816 2 191.088M2.22766 193.249C1.99697 191.841 2 191.088 2 191.088M2 191.088C2.00003 159.071 145.122 141.084 145.122 141.084M467.734 175.799C478.535 181.735 492.938 172.382 512.741 160.33C525.97 152.279 539.745 141.444 546.406 128.133C550.568 119.816 551.82 111.954 548.387 103.311C543.429 90.8307 531.644 86.9424 520.122 87.6619C499.62 88.9421 473.855 110.865 473.855 110.865C473.855 110.865 456.932 169.863 467.734 175.799ZM155.384 37.6576C157.364 47.5505 249.177 52.983 310.569 52.9468C371.681 52.9108 465.725 45.2125 465.753 32.8012C465.782 20.3899 371.7 12.3324 310.569 12.2958C249.159 12.2589 152.15 21.5027 155.384 37.6576Z" stroke="#4C1F7A" stroke-width="4"/>
</svg>
