<svg width="255" height="233" viewBox="0 0 255 233" fill="none" xmlns="http://www.w3.org/2000/svg">
<path d="M43.5311 232C43.5311 232 57.4162 220.401 54.7506 205.943C50.5787 183.313 16.8849 189.04 15.4825 184.111C14.0801 179.181 28.9247 169.53 33.0128 150.306C39.4186 120.184 -1.34664 111.924 1.10767 102.769C3.56198 93.6131 22.4068 101.742 38.9732 85.5142C61.1145 63.8254 28.8056 33.0468 37.5708 27.4127C46.336 21.7785 66.3379 54.1974 93.3175 45.3714C118.12 37.2574 116.107 0.65045 124.522 1.00252C132.936 1.3546 128.705 34.6041 152.22 45.3714C181.482 58.7708 205.162 22.835 213.576 27.4127C221.991 31.9904 197.409 56.3488 213.576 78.1192C227.866 97.3615 251.442 93.6131 253.896 102.769C256.351 111.924 214.659 124.627 224.796 154.18C231.05 172.414 246.884 172.842 245.832 179.885C244.781 186.927 209.775 182.662 206.915 202.773C205.018 216.107 216.732 226.014 216.732 226.014" stroke="#B15900" stroke-width="2"/>
</svg>
